<?xml version="1.0" encoding="UTF-8"?>
<svg xmlns="http://www.w3.org/2000/svg" xmlns:xlink="http://www.w3.org/1999/xlink" width="500px" height="500px" viewBox="0 0 500 500" version="1.1">
<g id="surface1">
<path style=" stroke:none;fill-rule:evenodd;fill:rgb(10.588235%,12.156863%,13.72549%);fill-opacity:1;" d="M 250 0 C 111.875 0 0 111.875 0 250 C 0 360.625 71.5625 454.0625 170.9375 487.1875 C 183.4375 489.375 188.125 481.875 188.125 475.3125 C 188.125 469.375 187.8125 449.6875 187.8125 428.75 C 125 440.3125 108.75 413.4375 103.75 399.375 C 100.9375 392.1875 88.75 370 78.125 364.0625 C 69.375 359.375 56.875 347.8125 77.8125 347.5 C 97.5 347.1875 111.5625 365.625 116.25 373.125 C 138.75 410.9375 174.6875 400.3125 189.0625 393.75 C 191.25 377.5 197.8125 366.5625 205 360.3125 C 149.375 354.0625 91.25 332.5 91.25 236.875 C 91.25 209.6875 100.9375 187.1875 116.875 169.6875 C 114.375 163.4375 105.625 137.8125 119.375 103.4375 C 119.375 103.4375 140.3125 96.875 188.125 129.0625 C 208.125 123.4375 229.375 120.625 250.625 120.625 C 271.875 120.625 293.125 123.4375 313.125 129.0625 C 360.9375 96.5625 381.875 103.4375 381.875 103.4375 C 395.625 137.8125 386.875 163.4375 384.375 169.6875 C 400.3125 187.1875 410 209.375 410 236.875 C 410 332.8125 351.5625 354.0625 295.9375 360.3125 C 305 368.125 312.8125 383.125 312.8125 406.5625 C 312.8125 440 312.5 466.875 312.5 475.3125 C 312.5 481.875 317.1875 489.6875 329.6875 487.1875 C 428.4375 454.0625 500 360.3125 500 250 C 500 111.875 388.125 0 250 0 Z M 250 0 "/>
</g>
</svg>
